<?xml version="1.0" encoding="UTF-8" standalone="no"?>
<!-- Created with Inkscape (http://www.inkscape.org/) -->

<svg
   xmlns:dc="http://purl.org/dc/elements/1.1/"
   xmlns:cc="http://creativecommons.org/ns#"
   xmlns:rdf="http://www.w3.org/1999/02/22-rdf-syntax-ns#"
   xmlns:svg="http://www.w3.org/2000/svg"
   xmlns="http://www.w3.org/2000/svg"
   xmlns:sodipodi="http://sodipodi.sourceforge.net/DTD/sodipodi-0.dtd"
   xmlns:inkscape="http://www.inkscape.org/namespaces/inkscape"
   width="92.893639mm"
   height="32.978146mm"
   viewBox="0 0 329.15069 116.8517"
   id="svg2"
   version="1.1"
   inkscape:version="0.91 r13725"
   sodipodi:docname="impulse_explanation.svg">
  <defs
     id="defs4358" />
  <sodipodi:namedview
     id="base"
     pagecolor="#2a2a2a"
     bordercolor="#666666"
     borderopacity="1.0"
     inkscape:pageopacity="0"
     inkscape:pageshadow="2"
     inkscape:zoom="4"
     inkscape:cx="171.19814"
     inkscape:cy="49.086586"
     inkscape:document-units="px"
     inkscape:current-layer="layer1"
     showgrid="false"
     inkscape:window-width="1920"
     inkscape:window-height="1039"
     inkscape:window-x="0"
     inkscape:window-y="41"
     inkscape:window-maximized="0"
     showguides="false"
     fit-margin-top="0"
     fit-margin-left="0"
     fit-margin-right="0"
     fit-margin-bottom="0" />
  <metadata
     id="metadata7">
    <rdf:RDF>
      <cc:Work
         rdf:about="">
        <dc:format>image/svg+xml</dc:format>
        <dc:type
           rdf:resource="http://purl.org/dc/dcmitype/StillImage" />
        <dc:title />
      </cc:Work>
    </rdf:RDF>
  </metadata>
  <g
     id="layer1"
     inkscape:groupmode="layer"
     inkscape:label="Layer 1"
     transform="translate(-78.317833,-114.36785)">
    <g
       id="g7324"
       style="fill:#ffffff;fill-opacity:0.70196078;stroke:none">
      <path
         style="color:#000000;font-style:normal;font-variant:normal;font-weight:normal;font-stretch:normal;font-size:medium;line-height:normal;font-family:sans-serif;text-indent:0;text-align:start;text-decoration:none;text-decoration-line:none;text-decoration-style:solid;text-decoration-color:#000000;letter-spacing:normal;word-spacing:normal;text-transform:none;direction:ltr;block-progression:tb;writing-mode:lr-tb;baseline-shift:baseline;text-anchor:start;white-space:normal;clip-rule:nonzero;display:inline;overflow:visible;visibility:visible;opacity:1;isolation:auto;mix-blend-mode:normal;color-interpolation:sRGB;color-interpolation-filters:linearRGB;solid-color:#000000;solid-opacity:1;fill:#ffffff;fill-opacity:0.70196078;fill-rule:evenodd;stroke:none;stroke-width:1px;stroke-linecap:butt;stroke-linejoin:miter;stroke-miterlimit:4;stroke-dasharray:none;stroke-dashoffset:0;stroke-opacity:1;color-rendering:auto;image-rendering:auto;shape-rendering:auto;text-rendering:auto;enable-background:accumulate"
         d="m 404.00954,193.75195 0,1.5 -292.97438,0 0,1 292.97438,0 0,1.5 3.45898,-2 z"
         id="path4136"
         inkscape:connector-curvature="0"
         sodipodi:nodetypes="cccccccc" />
    </g>
    <g
       id="g7309"
       style="fill:#ffffff;fill-opacity:0.70196078;stroke:none">
      <path
         style="color:#000000;font-style:normal;font-variant:normal;font-weight:normal;font-stretch:normal;font-size:medium;line-height:normal;font-family:sans-serif;text-indent:0;text-align:start;text-decoration:none;text-decoration-line:none;text-decoration-style:solid;text-decoration-color:#000000;letter-spacing:normal;word-spacing:normal;text-transform:none;direction:ltr;block-progression:tb;writing-mode:lr-tb;baseline-shift:baseline;text-anchor:start;white-space:normal;clip-rule:nonzero;display:inline;overflow:visible;visibility:visible;opacity:1;isolation:auto;mix-blend-mode:normal;color-interpolation:sRGB;color-interpolation-filters:linearRGB;solid-color:#000000;solid-opacity:1;fill:#ffffff;fill-opacity:0.70196078;fill-rule:evenodd;stroke:none;stroke-width:1px;stroke-linecap:butt;stroke-linejoin:miter;stroke-miterlimit:4;stroke-dasharray:none;stroke-dashoffset:0;stroke-opacity:1;color-rendering:auto;image-rendering:auto;shape-rendering:auto;text-rendering:auto;enable-background:accumulate"
         d="m 121.46875,128.55809 -2,3.45898 1.5,0 0,74.16848 1,0 0,-74.16848 1.5,0 z"
         id="path4138"
         inkscape:connector-curvature="0"
         sodipodi:nodetypes="cccccccc" />
    </g>
    <g
       style="font-style:normal;font-variant:normal;font-weight:normal;font-stretch:normal;font-size:15px;line-height:100%;font-family:Roboto;-inkscape-font-specification:'Roboto, Normal';text-align:start;letter-spacing:0px;word-spacing:0px;writing-mode:lr-tb;text-anchor:start;fill:#ffffff;fill-opacity:0.70196078;stroke:none;stroke-width:1px;stroke-linecap:butt;stroke-linejoin:miter;stroke-opacity:1"
       id="text4635">
      <path
         d="m 405.8938,201.36343 0,1.91162 1.50146,0 0,1.06934 -1.50146,0 0,4.81201 q 0,0.55664 0.22705,0.78369 0.23437,0.22705 0.61523,0.22705 0.12452,0 0.271,-0.0293 0.15381,-0.0293 0.271,-0.0732 l 0.19043,0.98877 q -0.16114,0.13183 -0.47608,0.2124 -0.30762,0.0879 -0.62256,0.0879 -0.8789,0 -1.39892,-0.52735 -0.52002,-0.53466 -0.52002,-1.66992 l 0,-4.81201 -1.25977,0 0,-1.06934 1.25977,0 0,-1.91162 1.44287,0 z"
         style="font-style:normal;font-variant:normal;font-weight:normal;font-stretch:normal;font-size:15px;line-height:100%;font-family:Roboto;-inkscape-font-specification:'Roboto, Normal';text-align:start;writing-mode:lr-tb;text-anchor:start;fill:#ffffff;fill-opacity:0.70196078"
         id="path7352" />
    </g>
    <g
       style="font-style:normal;font-variant:normal;font-weight:normal;font-stretch:normal;font-size:15px;line-height:100%;font-family:Roboto;-inkscape-font-specification:'Roboto, Normal';text-align:start;letter-spacing:0px;word-spacing:0px;writing-mode:lr-tb;text-anchor:start;fill:#ffffff;fill-opacity:0.70196078;stroke:none;stroke-width:1px;stroke-linecap:butt;stroke-linejoin:miter;stroke-opacity:1"
       id="text4645">
      <path
         d="m 79.768028,125.79363 -1.450195,0 0,-10.66406 1.450195,0 0,10.66406 z"
         style="font-style:normal;font-variant:normal;font-weight:normal;font-stretch:normal;font-size:15px;line-height:100%;font-family:Roboto;-inkscape-font-specification:'Roboto, Normal';text-align:start;writing-mode:lr-tb;text-anchor:start;fill:#ffffff;fill-opacity:0.70196078"
         id="path7364" />
      <path
         d="m 83.510704,117.86883 0.102539,1.04004 q 0.388184,-0.56397 0.981445,-0.87159 0.600586,-0.31494 1.391602,-0.31494 0.791016,0 1.35498,0.36621 0.57129,0.36622 0.856934,1.09864 0.373535,-0.67383 0.98877,-1.06934 0.615234,-0.39551 1.435546,-0.39551 1.208497,0 1.911622,0.83496 0.703125,0.82764 0.703125,2.49756 l 0,4.73877 -1.442872,0 0,-4.75342 q 0,-1.17187 -0.402832,-1.65527 -0.402832,-0.49072 -1.201171,-0.49072 -0.739747,0 -1.201172,0.51269 -0.454102,0.5127 -0.534668,1.29639 l 0,0.0586 0,5.03174 -1.450196,0 0,-4.75342 q 0,-1.11328 -0.41748,-1.62597 -0.410156,-0.52002 -1.186524,-0.52002 -0.659179,0 -1.083984,0.27099 -0.424805,0.271 -0.651855,0.76172 l 0,5.8667 -1.442871,0 0,-7.9248 1.289062,0 z"
         style="font-style:normal;font-variant:normal;font-weight:normal;font-stretch:normal;font-size:15px;line-height:100%;font-family:Roboto;-inkscape-font-specification:'Roboto, Normal';text-align:start;writing-mode:lr-tb;text-anchor:start;fill:#ffffff;fill-opacity:0.70196078"
         id="path7366" />
      <path
         d="m 102.09957,122.13152 q 0,1.71387 -0.82031,2.76856 -0.82031,1.04736 -2.263185,1.04736 -0.732422,0 -1.289062,-0.2417 -0.549317,-0.24902 -0.9375,-0.73974 l 0,3.87451 -1.442871,0 0,-10.97168 1.105957,0 0.22705,1.02539 q 0.388184,-0.57129 0.966797,-0.87158 0.578614,-0.3003 1.347656,-0.3003 1.472168,0 2.285158,1.17188 0.82031,1.16455 0.82031,3.08349 l 0,0.15381 z m -1.44287,-0.15381 q 0,-1.34765 -0.53467,-2.21191 -0.527342,-0.87158 -1.560056,-0.87158 -0.622559,0 -1.062012,0.28564 -0.439453,0.27832 -0.710449,0.76905 l 0,3.83056 q 0.270996,0.49073 0.710449,0.76905 0.439453,0.27099 1.07666,0.27099 1.025391,0 1.552738,-0.74707 0.52734,-0.75439 0.52734,-1.94092 l 0,-0.15381 z"
         style="font-style:normal;font-variant:normal;font-weight:normal;font-stretch:normal;font-size:15px;line-height:100%;font-family:Roboto;-inkscape-font-specification:'Roboto, Normal';text-align:start;writing-mode:lr-tb;text-anchor:start;fill:#ffffff;fill-opacity:0.70196078"
         id="path7368" />
      <path
         d="m 108.90377,124.62176 q -0.37353,0.6372 -0.95947,0.98144 -0.58594,0.34424 -1.35498,0.34424 -1.29639,0 -2.02149,-0.82764 -0.72509,-0.82763 -0.72509,-2.57812 l 0,-4.67285 1.44287,0 0,4.6875 q 0,1.26709 0.37353,1.74316 0.37354,0.47608 1.16455,0.47608 0.76905,0 1.26709,-0.30762 0.50537,-0.31494 0.76172,-0.88623 l 0,-5.71289 1.44287,0 0,7.9248 -1.29638,0 -0.0952,-1.17187 z"
         style="font-style:normal;font-variant:normal;font-weight:normal;font-stretch:normal;font-size:15px;line-height:100%;font-family:Roboto;-inkscape-font-specification:'Roboto, Normal';text-align:start;writing-mode:lr-tb;text-anchor:start;fill:#ffffff;fill-opacity:0.70196078"
         id="path7370" />
      <path
         d="m 113.95748,125.79363 -1.44287,0 0,-11.42578 1.44287,0 0,11.42578 z"
         style="font-style:normal;font-variant:normal;font-weight:normal;font-stretch:normal;font-size:15px;line-height:100%;font-family:Roboto;-inkscape-font-specification:'Roboto, Normal';text-align:start;writing-mode:lr-tb;text-anchor:start;fill:#ffffff;fill-opacity:0.70196078"
         id="path7372" />
      <path
         d="m 120.78365,123.69158 q 0,-0.47607 -0.36621,-0.78369 -0.35888,-0.30762 -1.36963,-0.53467 -1.44287,-0.31494 -2.17529,-0.84961 -0.7251,-0.54199 -0.7251,-1.47216 0,-0.9668 0.82032,-1.64795 0.82031,-0.68116 2.13867,-0.68116 1.38427,0 2.19726,0.71045 0.82032,0.71045 0.78369,1.72852 l -0.0146,0.0439 -1.37696,0 q 0,-0.52002 -0.43945,-0.93017 -0.43213,-0.41748 -1.1499,-0.41748 -0.76905,0 -1.14258,0.33691 -0.37354,0.33692 -0.37354,0.81299 0,0.46875 0.32959,0.73975 0.32959,0.27099 1.34034,0.48339 1.50146,0.32227 2.23388,0.87891 0.73242,0.54932 0.73242,1.47949 0,1.05469 -0.85693,1.70655 -0.84961,0.65185 -2.22656,0.65185 -1.51612,0 -2.3877,-0.76904 -0.87158,-0.76904 -0.82763,-1.79444 l 0.0146,-0.0439 1.37696,0 q 0.0366,0.76904 0.57129,1.12793 0.53466,0.35156 1.25244,0.35156 0.76904,0 1.20117,-0.30762 0.43945,-0.31494 0.43945,-0.82031 z"
         style="font-style:normal;font-variant:normal;font-weight:normal;font-stretch:normal;font-size:15px;line-height:100%;font-family:Roboto;-inkscape-font-specification:'Roboto, Normal';text-align:start;writing-mode:lr-tb;text-anchor:start;fill:#ffffff;fill-opacity:0.70196078"
         id="path7374" />
      <path
         d="m 127.31686,125.94744 q -1.65528,0 -2.63672,-1.09863 -0.97412,-1.10596 -0.97412,-2.86377 l 0,-0.32227 q 0,-1.69189 1.00341,-2.8125 1.01075,-1.12793 2.3877,-1.12793 1.604,0 2.42432,0.9668 0.82031,0.9668 0.82031,2.57813 l 0,0.90087 -5.1416,0 -0.022,0.0366 q 0.022,1.14257 0.57862,1.88232 0.55664,0.73242 1.56006,0.73242 0.73242,0 1.28173,-0.20508 0.55665,-0.2124 0.95948,-0.57861 l 0.56396,0.9375 q -0.4248,0.41748 -1.1206,0.6958 -0.6958,0.27832 -1.68457,0.27832 z m -0.21973,-7.08984 q -0.7251,0 -1.23779,0.61523 -0.5127,0.60791 -0.62989,1.53076 l 0.0147,0.0366 3.65479,0 0,-0.19043 q 0,-0.8496 -0.4541,-1.42089 -0.45411,-0.57129 -1.34766,-0.57129 z"
         style="font-style:normal;font-variant:normal;font-weight:normal;font-stretch:normal;font-size:15px;line-height:100%;font-family:Roboto;-inkscape-font-specification:'Roboto, Normal';text-align:start;writing-mode:lr-tb;text-anchor:start;fill:#ffffff;fill-opacity:0.70196078"
         id="path7376" />
      <path
         d="m 142.44137,122.13152 q 0,1.71387 -0.82031,2.76856 -0.82032,1.04736 -2.26319,1.04736 -0.73242,0 -1.28906,-0.2417 -0.54932,-0.24902 -0.9375,-0.73974 l 0,3.87451 -1.44287,0 0,-10.97168 1.10596,0 0.22705,1.02539 q 0.38818,-0.57129 0.96679,-0.87158 0.57862,-0.3003 1.34766,-0.3003 1.47217,0 2.28516,1.17188 0.82031,1.16455 0.82031,3.08349 l 0,0.15381 z m -1.44287,-0.15381 q 0,-1.34765 -0.53467,-2.21191 -0.52734,-0.87158 -1.56006,-0.87158 -0.62256,0 -1.06201,0.28564 -0.43945,0.27832 -0.71045,0.76905 l 0,3.83056 q 0.271,0.49073 0.71045,0.76905 0.43945,0.27099 1.07666,0.27099 1.02539,0 1.55273,-0.74707 0.52735,-0.75439 0.52735,-1.94092 l 0,-0.15381 z"
         style="font-style:normal;font-variant:normal;font-weight:normal;font-stretch:normal;font-size:15px;line-height:100%;font-family:Roboto;-inkscape-font-specification:'Roboto, Normal';text-align:start;writing-mode:lr-tb;text-anchor:start;fill:#ffffff;fill-opacity:0.70196078"
         id="path7378" />
      <path
         d="m 143.87691,121.75799 q 0,-1.75781 0.95215,-2.89307 0.95215,-1.14258 2.58545,-1.14258 1.64795,0 2.6001,1.13526 0.95947,1.13525 0.95947,2.90039 l 0,0.16113 q 0,1.77246 -0.95215,2.90039 -0.95214,1.12793 -2.59277,1.12793 -1.64062,0 -2.6001,-1.12793 -0.95215,-1.13525 -0.95215,-2.90039 l 0,-0.16113 z m 1.44288,0.16113 q 0,1.25977 0.52734,2.08008 0.53467,0.82031 1.58203,0.82031 1.03272,0 1.56738,-0.82031 0.53467,-0.82031 0.53467,-2.08008 l 0,-0.16113 q 0,-1.24512 -0.54199,-2.07276 -0.53467,-0.82763 -1.57471,-0.82763 -1.03271,0 -1.56738,0.82763 -0.52734,0.82764 -0.52734,2.07276 l 0,0.16113 z"
         style="font-style:normal;font-variant:normal;font-weight:normal;font-stretch:normal;font-size:15px;line-height:100%;font-family:Roboto;-inkscape-font-specification:'Roboto, Normal';text-align:start;writing-mode:lr-tb;text-anchor:start;fill:#ffffff;fill-opacity:0.70196078"
         id="path7380" />
      <path
         d="m 154.76803,122.90789 0.16846,0.95947 0.0439,0 0.20508,-0.95947 1.58203,-5.03906 1.15723,0 1.58935,5.03906 0.22705,1.06934 0.0439,0 0.2124,-1.06934 1.24512,-5.03906 1.43554,0 -2.2998,7.9248 -1.16455,0 -1.53076,-4.82666 -0.32959,-1.34765 -0.0439,0.007 -0.31494,1.34033 -1.50879,4.82666 -1.16455,0 -2.2998,-7.9248 1.43554,0 1.31104,5.03906 z"
         style="font-style:normal;font-variant:normal;font-weight:normal;font-stretch:normal;font-size:15px;line-height:100%;font-family:Roboto;-inkscape-font-specification:'Roboto, Normal';text-align:start;writing-mode:lr-tb;text-anchor:start;fill:#ffffff;fill-opacity:0.70196078"
         id="path7382" />
      <path
         d="m 167.39498,125.94744 q -1.65527,0 -2.63672,-1.09863 -0.97412,-1.10596 -0.97412,-2.86377 l 0,-0.32227 q 0,-1.69189 1.00342,-2.8125 1.01074,-1.12793 2.38769,-1.12793 1.60401,0 2.42432,0.9668 0.82031,0.9668 0.82031,2.57813 l 0,0.90087 -5.1416,0 -0.022,0.0366 q 0.022,1.14257 0.57861,1.88232 0.55664,0.73242 1.56006,0.73242 0.73242,0 1.28174,-0.20508 0.55664,-0.2124 0.95947,-0.57861 l 0.56397,0.9375 q -0.42481,0.41748 -1.12061,0.6958 -0.6958,0.27832 -1.68457,0.27832 z m -0.21973,-7.08984 q -0.72509,0 -1.23779,0.61523 -0.51269,0.60791 -0.62988,1.53076 l 0.0146,0.0366 3.65478,0 0,-0.19043 q 0,-0.8496 -0.4541,-1.42089 -0.4541,-0.57129 -1.34766,-0.57129 z"
         style="font-style:normal;font-variant:normal;font-weight:normal;font-stretch:normal;font-size:15px;line-height:100%;font-family:Roboto;-inkscape-font-specification:'Roboto, Normal';text-align:start;writing-mode:lr-tb;text-anchor:start;fill:#ffffff;fill-opacity:0.70196078"
         id="path7384" />
      <path
         d="m 175.79586,119.14324 -0.73975,-0.0439 q -0.57128,0 -0.96679,0.27099 -0.38819,0.271 -0.60059,0.76172 l 0,5.66162 -1.44287,0 0,-7.9248 1.28906,0 0.13916,1.15722 q 0.33692,-0.61523 0.82764,-0.95947 0.49805,-0.34424 1.14258,-0.34424 0.16113,0 0.30761,0.0293 0.14649,0.022 0.2417,0.0513 l -0.19775,1.34033 z"
         style="font-style:normal;font-variant:normal;font-weight:normal;font-stretch:normal;font-size:15px;line-height:100%;font-family:Roboto;-inkscape-font-specification:'Roboto, Normal';text-align:start;writing-mode:lr-tb;text-anchor:start;fill:#ffffff;fill-opacity:0.70196078"
         id="path7386" />
    </g>
    <g
       style="font-style:normal;font-variant:normal;font-weight:normal;font-stretch:normal;font-size:15px;line-height:100%;font-family:Roboto;-inkscape-font-specification:'Roboto, Normal';text-align:start;letter-spacing:0px;word-spacing:0px;writing-mode:lr-tb;text-anchor:start;fill:#ffffff;fill-opacity:0.70196078;stroke:none;stroke-width:1px;stroke-linecap:butt;stroke-linejoin:miter;stroke-opacity:1"
       id="text4665">
      <path
         d="m 81.943321,168.59854 -1.442871,0 0,-9.25781 -2.182617,0.0293 0,-1.04004 3.625488,-0.39551 0,10.66406 z"
         style="font-style:normal;font-variant:normal;font-weight:normal;font-stretch:normal;font-size:15px;line-height:100%;font-family:Roboto;-inkscape-font-specification:'Roboto, Normal';text-align:start;writing-mode:lr-tb;text-anchor:start;fill:#ffffff;fill-opacity:0.70196078"
         id="path7355" />
      <path
         d="m 93.010216,164.5336 q 0,2.04346 -0.908203,3.13477 -0.900879,1.08398 -2.475586,1.08398 -1.574707,0 -2.490235,-1.09131 -0.915527,-1.09131 -0.915527,-3.12744 l 0,-2.52686 q 0,-2.03613 0.908203,-3.12744 0.915527,-1.09863 2.48291,-1.09863 1.574707,0 2.48291,1.09863 0.915528,1.09131 0.915528,3.12744 l 0,2.52686 z m -1.442871,-2.83447 q 0,-1.38428 -0.505371,-2.08008 -0.498047,-0.70313 -1.450196,-0.70313 -0.952148,0 -1.450195,0.70313 -0.498047,0.6958 -0.498047,2.08008 l 0,3.12744 q 0,1.38428 0.505371,2.09473 0.505371,0.70312 1.45752,0.70312 0.952148,0 1.442871,-0.70312 0.498047,-0.70313 0.498047,-2.09473 l 0,-3.12744 z"
         style="font-style:normal;font-variant:normal;font-weight:normal;font-stretch:normal;font-size:15px;line-height:100%;font-family:Roboto;-inkscape-font-specification:'Roboto, Normal';text-align:start;writing-mode:lr-tb;text-anchor:start;fill:#ffffff;fill-opacity:0.70196078"
         id="path7357" />
      <path
         d="m 101.47701,164.5336 q 0,2.04346 -0.9082,3.13477 -0.900879,1.08398 -2.475586,1.08398 -1.574707,0 -2.490235,-1.09131 -0.915527,-1.09131 -0.915527,-3.12744 l 0,-2.52686 q 0,-2.03613 0.908203,-3.12744 0.915527,-1.09863 2.48291,-1.09863 1.574707,0 2.482915,1.09863 0.91552,1.09131 0.91552,3.12744 l 0,2.52686 z m -1.44287,-2.83447 q 0,-1.38428 -0.50537,-2.08008 -0.498046,-0.70313 -1.450195,-0.70313 -0.952148,0 -1.450195,0.70313 -0.498047,0.6958 -0.498047,2.08008 l 0,3.12744 q 0,1.38428 0.505371,2.09473 0.505371,0.70312 1.45752,0.70312 0.952148,0 1.442871,-0.70312 0.498045,-0.70313 0.498045,-2.09473 l 0,-3.12744 z"
         style="font-style:normal;font-variant:normal;font-weight:normal;font-stretch:normal;font-size:15px;line-height:100%;font-family:Roboto;-inkscape-font-specification:'Roboto, Normal';text-align:start;writing-mode:lr-tb;text-anchor:start;fill:#ffffff;fill-opacity:0.70196078"
         id="path7359" />
      <path
         d="m 103.08834,159.98526 q 0,-0.93018 0.60059,-1.56738 0.60058,-0.63721 1.604,-0.63721 1.00342,0 1.604,0.63721 0.60059,0.62988 0.60059,1.56738 l 0,0.56396 q 0,0.93018 -0.60059,1.56006 -0.59326,0.62989 -1.58935,0.62989 -1.01074,0 -1.61865,-0.62989 -0.60059,-0.62988 -0.60059,-1.56006 l 0,-0.56396 z m 1.06934,0.56396 q 0,0.542 0.29297,0.92286 0.30029,0.37353 0.85693,0.37353 0.53467,0 0.82764,-0.37353 0.29296,-0.37354 0.29296,-0.92286 l 0,-0.56396 q 0,-0.54199 -0.30029,-0.92285 -0.29297,-0.38819 -0.83496,-0.38819 -0.54932,0 -0.84228,0.38819 -0.29297,0.38086 -0.29297,0.92285 l 0,0.56396 z m 4.09423,5.43458 q 0,-0.93018 0.60059,-1.56006 0.60059,-0.63721 1.604,-0.63721 0.9961,0 1.59668,0.63721 0.60791,0.62988 0.60791,1.56006 l 0,0.57128 q 0,0.9375 -0.60058,1.56739 -0.60059,0.62988 -1.58936,0.62988 -1.01074,0 -1.61865,-0.62988 -0.60059,-0.62989 -0.60059,-1.56739 l 0,-0.57128 z m 1.06934,0.57128 q 0,0.54932 0.29297,0.93018 0.30029,0.37354 0.85693,0.37354 0.53467,0 0.82764,-0.37354 0.29297,-0.38086 0.29297,-0.93018 l 0,-0.57128 q 0,-0.542 -0.30029,-0.92286 -0.3003,-0.38086 -0.83497,-0.38086 -0.54199,0 -0.84228,0.38086 -0.29297,0.38086 -0.29297,0.92286 l 0,0.57128 z m -3.64014,1.2378 -0.79834,-0.49073 5.20752,-8.33496 0.79834,0.49073 -5.20752,8.33496 z"
         style="font-style:normal;font-variant:normal;font-weight:normal;font-stretch:normal;font-size:15px;line-height:100%;font-family:Roboto;-inkscape-font-specification:'Roboto, Normal';text-align:start;writing-mode:lr-tb;text-anchor:start;fill:#ffffff;fill-opacity:0.70196078"
         id="path7361" />
    </g>
    <path
       style="color:#000000;font-style:normal;font-variant:normal;font-weight:normal;font-stretch:normal;font-size:medium;line-height:normal;font-family:sans-serif;text-indent:0;text-align:start;text-decoration:none;text-decoration-line:none;text-decoration-style:solid;text-decoration-color:#000000;letter-spacing:normal;word-spacing:normal;text-transform:none;direction:ltr;block-progression:tb;writing-mode:lr-tb;baseline-shift:baseline;text-anchor:start;white-space:normal;clip-rule:nonzero;display:inline;overflow:visible;visibility:visible;opacity:1;isolation:auto;mix-blend-mode:normal;color-interpolation:sRGB;color-interpolation-filters:linearRGB;solid-color:#000000;solid-opacity:1;fill:#80cbc4;fill-opacity:1;fill-rule:evenodd;stroke:none;stroke-width:1.5;stroke-linecap:round;stroke-linejoin:round;stroke-miterlimit:4;stroke-dasharray:none;stroke-dashoffset:0;stroke-opacity:1;color-rendering:auto;image-rendering:auto;shape-rendering:auto;text-rendering:auto;enable-background:accumulate"
       d="m 156.24414,162.51562 a 0.750075,0.750075 0 0 0 -0.55664,0.24805 l -29.17188,32.26563 -8.87695,0 a 0.750075,0.750075 0 1 0 0,1.5 l 9.20899,0 a 0.750075,0.750075 0 0 0 0.55664,-0.2461 l 29.17187,-32.26758 47.67774,0 50.50195,32.39649 a 0.750075,0.750075 0 0 0 0.4043,0.11719 l 105.37695,0 a 0.750075,0.750075 0 1 0 0,-1.5 l -105.15625,0 -50.50195,-32.39453 a 0.750075,0.750075 0 0 0 -0.4043,-0.11915 l -48.23047,0 z"
       id="path4675"
       inkscape:connector-curvature="0" />
    <path
       style="color:#000000;font-style:normal;font-variant:normal;font-weight:normal;font-stretch:normal;font-size:medium;line-height:normal;font-family:sans-serif;text-indent:0;text-align:start;text-decoration:none;text-decoration-line:none;text-decoration-style:solid;text-decoration-color:#000000;letter-spacing:normal;word-spacing:normal;text-transform:none;direction:ltr;block-progression:tb;writing-mode:lr-tb;baseline-shift:baseline;text-anchor:start;white-space:normal;clip-rule:nonzero;display:inline;overflow:visible;visibility:visible;opacity:1;isolation:auto;mix-blend-mode:normal;color-interpolation:sRGB;color-interpolation-filters:linearRGB;solid-color:#000000;solid-opacity:1;fill:#f17a0a;fill-opacity:1;fill-rule:evenodd;stroke:none;stroke-width:1.5;stroke-linecap:butt;stroke-linejoin:miter;stroke-miterlimit:4;stroke-dasharray:none;stroke-dashoffset:0;stroke-opacity:1;color-rendering:auto;image-rendering:auto;shape-rendering:auto;text-rendering:auto;enable-background:accumulate"
       d="m 126.18359,190.19922 0,11.10742 1.5,0 0,-11.10742 -1.5,0 z"
       id="path5633"
       inkscape:connector-curvature="0" />
    <path
       style="color:#000000;font-style:normal;font-variant:normal;font-weight:normal;font-stretch:normal;font-size:medium;line-height:normal;font-family:sans-serif;text-indent:0;text-align:start;text-decoration:none;text-decoration-line:none;text-decoration-style:solid;text-decoration-color:#000000;letter-spacing:normal;word-spacing:normal;text-transform:none;direction:ltr;block-progression:tb;writing-mode:lr-tb;baseline-shift:baseline;text-anchor:start;white-space:normal;clip-rule:nonzero;display:inline;overflow:visible;visibility:visible;opacity:1;isolation:auto;mix-blend-mode:normal;color-interpolation:sRGB;color-interpolation-filters:linearRGB;solid-color:#000000;solid-opacity:1;fill:#f17a0a;fill-opacity:1;fill-rule:evenodd;stroke:none;stroke-width:1.5;stroke-linecap:butt;stroke-linejoin:miter;stroke-miterlimit:4;stroke-dasharray:none;stroke-dashoffset:0;stroke-opacity:1;color-rendering:auto;image-rendering:auto;shape-rendering:auto;text-rendering:auto;enable-background:accumulate"
       d="m 155.44531,190.19922 0,11.10742 1.5,0 0,-11.10742 -1.5,0 z"
       id="path5641"
       inkscape:connector-curvature="0" />
    <path
       style="color:#000000;font-style:normal;font-variant:normal;font-weight:normal;font-stretch:normal;font-size:medium;line-height:normal;font-family:sans-serif;text-indent:0;text-align:start;text-decoration:none;text-decoration-line:none;text-decoration-style:solid;text-decoration-color:#000000;letter-spacing:normal;word-spacing:normal;text-transform:none;direction:ltr;block-progression:tb;writing-mode:lr-tb;baseline-shift:baseline;text-anchor:start;white-space:normal;clip-rule:nonzero;display:inline;overflow:visible;visibility:visible;opacity:1;isolation:auto;mix-blend-mode:normal;color-interpolation:sRGB;color-interpolation-filters:linearRGB;solid-color:#000000;solid-opacity:1;fill:#f17a0a;fill-opacity:1;fill-rule:evenodd;stroke:none;stroke-width:1.5;stroke-linecap:butt;stroke-linejoin:miter;stroke-miterlimit:4;stroke-dasharray:none;stroke-dashoffset:0;stroke-opacity:1;color-rendering:auto;image-rendering:auto;shape-rendering:auto;text-rendering:auto;enable-background:accumulate"
       d="m 203.9043,190.19922 0,11.10742 1.5,0 0,-11.10742 -1.5,0 z"
       id="path5649"
       inkscape:connector-curvature="0" />
    <path
       style="color:#000000;font-style:normal;font-variant:normal;font-weight:normal;font-stretch:normal;font-size:medium;line-height:normal;font-family:sans-serif;text-indent:0;text-align:start;text-decoration:none;text-decoration-line:none;text-decoration-style:solid;text-decoration-color:#000000;letter-spacing:normal;word-spacing:normal;text-transform:none;direction:ltr;block-progression:tb;writing-mode:lr-tb;baseline-shift:baseline;text-anchor:start;white-space:normal;clip-rule:nonzero;display:inline;overflow:visible;visibility:visible;opacity:1;isolation:auto;mix-blend-mode:normal;color-interpolation:sRGB;color-interpolation-filters:linearRGB;solid-color:#000000;solid-opacity:1;fill:#f17a0a;fill-opacity:1;fill-rule:evenodd;stroke:none;stroke-width:1.5;stroke-linecap:butt;stroke-linejoin:miter;stroke-miterlimit:4;stroke-dasharray:none;stroke-dashoffset:0;stroke-opacity:1;color-rendering:auto;image-rendering:auto;shape-rendering:auto;text-rendering:auto;enable-background:accumulate"
       d="m 254.22266,190.19922 0,11.10742 1.5,0 0,-11.10742 -1.5,0 z"
       id="path5657"
       inkscape:connector-curvature="0" />
    <g
       transform="matrix(0,0.17203774,0.17203774,0,111.33006,126.69702)"
       id="text5866"
       style="font-style:normal;font-variant:normal;font-weight:300;font-stretch:normal;font-size:180px;line-height:100%;font-family:Roboto;-inkscape-font-specification:'Roboto, Light';text-align:start;letter-spacing:0px;word-spacing:0px;writing-mode:lr-tb;text-anchor:start;fill:#ffffff;fill-opacity:0.70196078;stroke:none;stroke-width:1px;stroke-linecap:butt;stroke-linejoin:miter;stroke-opacity:1">
      <path
         inkscape:connector-curvature="0"
         id="path5871"
         style="font-style:normal;font-variant:normal;font-weight:300;font-stretch:normal;font-size:180px;line-height:100%;font-family:Roboto;-inkscape-font-specification:'Roboto, Light';text-align:start;writing-mode:lr-tb;text-anchor:start;fill:#ffffff;fill-opacity:0.70196078"
         d="m 190.04073,263.6801 q -16.08399,-4.83398 -22.93946,-15.29297 -6.76758,-10.37109 -6.76758,-25.3125 l 0,-19.86328 q 0,-10.72266 -5.00976,-16.69922 -4.92188,-6.06445 -15.29297,-6.06445 l 0,-9.14063 q 10.37109,0 15.29297,-5.88867 5.00976,-5.88867 5.00976,-16.69922 l 0,-20.03906 q 0,-15.0293 6.76758,-25.48828 6.85547,-10.546877 22.93946,-15.380861 l 2.28515,6.943359 q -11.16211,3.603516 -16.34765,12.480472 -5.09766,8.87695 -5.09766,21.44531 l 0,20.03906 q 0,9.66797 -4.04297,16.78711 -3.95508,7.11914 -12.12891,10.3711 8.17383,3.42773 12.12891,10.63476 4.04297,7.11914 4.04297,16.69922 l 0,19.86328 q 0,12.56836 5.18555,21.18164 5.27343,8.70117 16.52343,12.39258 l -2.54882,7.03125 z" />
    </g>
    <g
       style="font-style:normal;font-variant:normal;font-weight:normal;font-stretch:normal;font-size:15px;line-height:100%;font-family:Roboto;-inkscape-font-specification:'Roboto, Normal';text-align:start;letter-spacing:0px;word-spacing:0px;writing-mode:lr-tb;text-anchor:start;fill:#ffffff;fill-opacity:1;stroke:none;stroke-width:1px;stroke-linecap:butt;stroke-linejoin:miter;stroke-opacity:1"
       id="text5873">
      <path
         d="m 131.32471,143.55626 q 0,-0.73242 -0.54931,-1.22315 -0.54932,-0.49804 -1.94824,-0.83496 -1.6919,-0.40283 -2.64405,-1.18652 -0.94482,-0.78369 -0.94482,-1.97021 0,-1.24512 1.01807,-2.08008 1.02539,-0.83496 2.65136,-0.83496 1.75049,0 2.78321,0.95947 1.04003,0.95947 1.00341,2.22656 l -0.0146,0.0439 -1.37696,0 q 0,-0.9375 -0.62256,-1.51612 -0.61523,-0.57861 -1.77246,-0.57861 -1.07666,0 -1.65527,0.49072 -0.57129,0.4834 -0.57129,1.26709 0,0.6958 0.62256,1.16455 0.62256,0.46143 2.02148,0.81299 1.68457,0.41748 2.56348,1.23047 0.87891,0.81299 0.87891,2.01416 0,1.28906 -1.05469,2.07275 -1.05469,0.7837 -2.75391,0.7837 -1.59668,0 -2.82715,-0.86426 -1.22314,-0.86426 -1.18652,-2.31445 l 0.0147,-0.0439 1.37695,0 q 0,1.02539 0.7544,1.56006 0.75439,0.53467 1.86767,0.53467 1.09131,0 1.72852,-0.46143 0.6372,-0.46143 0.6372,-1.25244 z"
         style="font-style:normal;font-variant:normal;font-weight:normal;font-stretch:normal;font-size:15px;line-height:100%;font-family:Roboto;-inkscape-font-specification:'Roboto, Normal';text-align:start;writing-mode:lr-tb;text-anchor:start;fill:#ffffff;fill-opacity:1"
         id="path7460" />
      <path
         d="m 136.15137,146.24425 -1.44287,0 0,-11.42578 1.44287,0 0,11.42578 z"
         style="font-style:normal;font-variant:normal;font-weight:normal;font-stretch:normal;font-size:15px;line-height:100%;font-family:Roboto;-inkscape-font-specification:'Roboto, Normal';text-align:start;writing-mode:lr-tb;text-anchor:start;fill:#ffffff;fill-opacity:1"
         id="path7462" />
      <path
         d="m 138.0337,142.2086 q 0,-1.75781 0.95215,-2.89306 0.95215,-1.14258 2.58545,-1.14258 1.64795,0 2.60009,1.13525 0.95948,1.13526 0.95948,2.90039 l 0,0.16114 q 0,1.77246 -0.95215,2.90039 -0.95215,1.12793 -2.59277,1.12793 -1.64063,0 -2.6001,-1.12793 -0.95215,-1.13526 -0.95215,-2.90039 l 0,-0.16114 z m 1.44287,0.16114 q 0,1.25976 0.52734,2.08007 0.53467,0.82032 1.58204,0.82032 1.03271,0 1.56738,-0.82032 0.53467,-0.82031 0.53467,-2.08007 l 0,-0.16114 q 0,-1.24511 -0.542,-2.07275 -0.53466,-0.82764 -1.5747,-0.82764 -1.03272,0 -1.56739,0.82764 -0.52734,0.82764 -0.52734,2.07275 l 0,0.16114 z"
         style="font-style:normal;font-variant:normal;font-weight:normal;font-stretch:normal;font-size:15px;line-height:100%;font-family:Roboto;-inkscape-font-specification:'Roboto, Normal';text-align:start;writing-mode:lr-tb;text-anchor:start;fill:#ffffff;fill-opacity:1"
         id="path7464" />
      <path
         d="m 153.64893,142.58214 q 0,1.71387 -0.82031,2.76855 -0.82031,1.04737 -2.26318,1.04737 -0.73242,0 -1.28907,-0.2417 -0.54931,-0.24903 -0.9375,-0.73975 l 0,3.87451 -1.44287,0 0,-10.97168 1.10596,0 0.22705,1.02539 q 0.38819,-0.57129 0.9668,-0.87158 0.57861,-0.30029 1.34765,-0.30029 1.47217,0 2.28516,1.17187 0.82031,1.16455 0.82031,3.0835 l 0,0.15381 z m -1.44287,-0.15381 q 0,-1.34766 -0.53467,-2.21191 -0.52734,-0.87159 -1.56005,-0.87159 -0.62256,0 -1.06202,0.28565 -0.43945,0.27832 -0.71045,0.76904 l 0,3.83057 q 0.271,0.49072 0.71045,0.76904 0.43946,0.271 1.07666,0.271 1.02539,0 1.55274,-0.74707 0.52734,-0.7544 0.52734,-1.94092 l 0,-0.15381 z"
         style="font-style:normal;font-variant:normal;font-weight:normal;font-stretch:normal;font-size:15px;line-height:100%;font-family:Roboto;-inkscape-font-specification:'Roboto, Normal';text-align:start;writing-mode:lr-tb;text-anchor:start;fill:#ffffff;fill-opacity:1"
         id="path7466" />
      <path
         d="m 158.70997,146.39806 q -1.65527,0 -2.63672,-1.09864 -0.97412,-1.10595 -0.97412,-2.86377 l 0,-0.32226 q 0,-1.6919 1.00342,-2.8125 1.01074,-1.12793 2.38769,-1.12793 1.60401,0 2.42432,0.9668 0.82031,0.96679 0.82031,2.57812 l 0,0.90088 -5.1416,0 -0.022,0.0366 q 0.022,1.14258 0.57861,1.88232 0.55664,0.73243 1.56006,0.73243 0.73242,0 1.28174,-0.20508 0.55664,-0.2124 0.95947,-0.57862 l 0.56396,0.9375 q -0.4248,0.41749 -1.1206,0.69581 -0.6958,0.27832 -1.68457,0.27832 z m -0.21973,-7.08985 q -0.7251,0 -1.23779,0.61524 -0.5127,0.60791 -0.62988,1.53076 l 0.0146,0.0366 3.65479,0 0,-0.19043 q 0,-0.84961 -0.4541,-1.4209 -0.4541,-0.57129 -1.34766,-0.57129 z"
         style="font-style:normal;font-variant:normal;font-weight:normal;font-stretch:normal;font-size:15px;line-height:100%;font-family:Roboto;-inkscape-font-specification:'Roboto, Normal';text-align:start;writing-mode:lr-tb;text-anchor:start;fill:#ffffff;fill-opacity:1"
         id="path7468" />
      <path
         d="m 170.83155,139.59386 -0.73975,-0.0439 q -0.57128,0 -0.96679,0.271 -0.38819,0.27099 -0.60059,0.76172 l 0,5.66162 -1.44287,0 0,-7.92481 1.28906,0 0.13916,1.15723 q 0.33692,-0.61524 0.82764,-0.95947 0.49805,-0.34424 1.14258,-0.34424 0.16113,0 0.30762,0.0293 0.14648,0.022 0.24169,0.0513 l -0.19775,1.34034 z"
         style="font-style:normal;font-variant:normal;font-weight:normal;font-stretch:normal;font-size:15px;line-height:100%;font-family:Roboto;-inkscape-font-specification:'Roboto, Normal';text-align:start;writing-mode:lr-tb;text-anchor:start;fill:#ffffff;fill-opacity:1"
         id="path7470" />
      <path
         d="m 173.79786,146.24425 -1.44287,0 0,-7.92481 1.44287,0 0,7.92481 z m 0,-9.95362 -1.44287,0 0,-1.47216 1.44287,0 0,1.47216 z"
         style="font-style:normal;font-variant:normal;font-weight:normal;font-stretch:normal;font-size:15px;line-height:100%;font-family:Roboto;-inkscape-font-specification:'Roboto, Normal';text-align:start;writing-mode:lr-tb;text-anchor:start;fill:#ffffff;fill-opacity:1"
         id="path7472" />
      <path
         d="m 180.62403,144.1422 q 0,-0.47608 -0.36621,-0.78369 -0.35889,-0.30762 -1.36963,-0.53467 -1.44287,-0.31494 -2.17529,-0.84961 -0.7251,-0.54199 -0.7251,-1.47217 0,-0.9668 0.82031,-1.64795 0.82032,-0.68115 2.13867,-0.68115 1.38428,0 2.19727,0.71045 0.82031,0.71045 0.78369,1.72851 l -0.0146,0.0439 -1.37695,0 q 0,-0.52002 -0.43945,-0.93018 -0.43213,-0.41748 -1.14991,-0.41748 -0.76904,0 -1.14257,0.33692 -0.37354,0.33691 -0.37354,0.81298 0,0.46875 0.32959,0.73975 0.32959,0.271 1.34033,0.4834 1.50147,0.32226 2.23389,0.87891 0.73242,0.54931 0.73242,1.47949 0,1.05469 -0.85693,1.70654 -0.84961,0.65186 -2.22656,0.65186 -1.51612,0 -2.3877,-0.76905 -0.87158,-0.76904 -0.82764,-1.79443 l 0.0147,-0.0439 1.37696,0 q 0.0366,0.76905 0.57128,1.12793 0.53467,0.35157 1.25245,0.35157 0.76904,0 1.20117,-0.30762 0.43945,-0.31494 0.43945,-0.82031 z"
         style="font-style:normal;font-variant:normal;font-weight:normal;font-stretch:normal;font-size:15px;line-height:100%;font-family:Roboto;-inkscape-font-specification:'Roboto, Normal';text-align:start;writing-mode:lr-tb;text-anchor:start;fill:#ffffff;fill-opacity:1"
         id="path7474" />
      <path
         d="m 187.15723,146.39806 q -1.65527,0 -2.63671,-1.09864 -0.97413,-1.10595 -0.97413,-2.86377 l 0,-0.32226 q 0,-1.6919 1.00342,-2.8125 1.01074,-1.12793 2.3877,-1.12793 1.604,0 2.42431,0.9668 0.82032,0.96679 0.82032,2.57812 l 0,0.90088 -5.14161,0 -0.022,0.0366 q 0.022,1.14258 0.57862,1.88232 0.55664,0.73243 1.56005,0.73243 0.73243,0 1.28174,-0.20508 0.55664,-0.2124 0.95948,-0.57862 l 0.56396,0.9375 q -0.4248,0.41749 -1.12061,0.69581 -0.6958,0.27832 -1.68457,0.27832 z m -0.21972,-7.08985 q -0.7251,0 -1.2378,0.61524 -0.51269,0.60791 -0.62988,1.53076 l 0.0147,0.0366 3.65479,0 0,-0.19043 q 0,-0.84961 -0.45411,-1.4209 -0.4541,-0.57129 -1.34765,-0.57129 z"
         style="font-style:normal;font-variant:normal;font-weight:normal;font-stretch:normal;font-size:15px;line-height:100%;font-family:Roboto;-inkscape-font-specification:'Roboto, Normal';text-align:start;writing-mode:lr-tb;text-anchor:start;fill:#ffffff;fill-opacity:1"
         id="path7476" />
    </g>
    <g
       style="font-style:normal;font-variant:normal;font-weight:300;font-stretch:normal;font-size:180px;line-height:100%;font-family:Roboto;-inkscape-font-specification:'Roboto, Light';text-align:start;letter-spacing:0px;word-spacing:0px;writing-mode:lr-tb;text-anchor:start;fill:#ffffff;fill-opacity:0.70196078;stroke:none;stroke-width:1px;stroke-linecap:butt;stroke-linejoin:miter;stroke-opacity:1"
       id="g5877"
       transform="matrix(0,0.17203774,0.17203774,0,189.28858,126.69702)">
      <path
         sodipodi:nodetypes="ccssccccssccccsscccssccc"
         d="m 190.04073,381.02354 c -10.72266,-3.22265 -18.36915,-8.32031 -22.93946,-15.29297 -4.51172,-6.91406 -6.76758,-15.35156 -6.76758,-25.3125 l 0,-77.99006 c 0,-7.14844 -1.66992,-12.71485 -5.00976,-16.69922 -3.28125,-4.04297 -8.37891,-6.06445 -15.29297,-6.06445 l 0,-9.14063 c 6.91406,0 12.01172,-1.96289 15.29297,-5.88867 3.33984,-3.92578 5.00976,-9.49219 5.00976,-16.69922 l 0,-78.16584 c 0,-10.01954 2.25586,-18.51563 6.76758,-25.48828 4.57031,-7.031254 12.2168,-12.158208 22.93946,-15.380864 l 2.28515,6.943359 c -7.44141,2.402344 -12.89062,6.562505 -16.34765,12.480475 -3.39844,5.91796 -5.09766,13.0664 -5.09766,21.44531 l 0,78.16584 c 0,6.44531 -1.34766,12.04102 -4.04297,16.78711 -2.63672,4.74609 -6.67969,8.20313 -12.12891,10.3711 5.44922,2.28515 9.49219,5.83007 12.12891,10.63476 2.69531,4.74609 4.04297,10.3125 4.04297,16.69922 l 0,77.99006 c 0,8.37891 1.72852,15.43945 5.18555,21.18164 3.51562,5.80078 9.02343,9.93164 16.52343,12.39258 z"
         style="font-style:normal;font-variant:normal;font-weight:300;font-stretch:normal;font-size:180px;line-height:100%;font-family:Roboto;-inkscape-font-specification:'Roboto, Light';text-align:start;writing-mode:lr-tb;text-anchor:start;fill:#ffffff;fill-opacity:0.70196078"
         id="path5879"
         inkscape:connector-curvature="0" />
    </g>
    <g
       style="font-style:normal;font-variant:normal;font-weight:normal;font-stretch:normal;font-size:15px;line-height:100%;font-family:Roboto;-inkscape-font-specification:'Roboto, Normal';text-align:start;letter-spacing:0px;word-spacing:0px;writing-mode:lr-tb;text-anchor:start;fill:#ffffff;fill-opacity:1;stroke:none;stroke-width:1px;stroke-linecap:butt;stroke-linejoin:miter;stroke-opacity:1"
       id="text5881">
      <path
         d="m 219.41803,143.55626 q 0,-0.73242 -0.54932,-1.22315 -0.54931,-0.49804 -1.94824,-0.83496 -1.69189,-0.40283 -2.64404,-1.18652 -0.94483,-0.78369 -0.94483,-1.97021 0,-1.24512 1.01807,-2.08008 1.02539,-0.83496 2.65137,-0.83496 1.75049,0 2.7832,0.95947 1.04004,0.95947 1.00342,2.22656 l -0.0146,0.0439 -1.37695,0 q 0,-0.9375 -0.62256,-1.51612 -0.61524,-0.57861 -1.77246,-0.57861 -1.07666,0 -1.65528,0.49072 -0.57128,0.4834 -0.57128,1.26709 0,0.6958 0.62255,1.16455 0.62256,0.46143 2.02149,0.81299 1.68457,0.41748 2.56347,1.23047 0.87891,0.81299 0.87891,2.01416 0,1.28906 -1.05469,2.07275 -1.05468,0.7837 -2.7539,0.7837 -1.59668,0 -2.82715,-0.86426 -1.22315,-0.86426 -1.18652,-2.31445 l 0.0146,-0.0439 1.37696,0 q 0,1.02539 0.75439,1.56006 0.7544,0.53467 1.86768,0.53467 1.09131,0 1.72851,-0.46143 0.63721,-0.46143 0.63721,-1.25244 z"
         style="font-style:normal;font-variant:normal;font-weight:normal;font-stretch:normal;font-size:15px;line-height:100%;font-family:Roboto;-inkscape-font-specification:'Roboto, Normal';text-align:start;writing-mode:lr-tb;text-anchor:start;fill:#ffffff;fill-opacity:1"
         id="path7441" />
      <path
         d="m 224.24469,146.24425 -1.44287,0 0,-11.42578 1.44287,0 0,11.42578 z"
         style="font-style:normal;font-variant:normal;font-weight:normal;font-stretch:normal;font-size:15px;line-height:100%;font-family:Roboto;-inkscape-font-specification:'Roboto, Normal';text-align:start;writing-mode:lr-tb;text-anchor:start;fill:#ffffff;fill-opacity:1"
         id="path7443" />
      <path
         d="m 226.12701,142.2086 q 0,-1.75781 0.95215,-2.89306 0.95215,-1.14258 2.58545,-1.14258 1.64795,0 2.6001,1.13525 0.95947,1.13526 0.95947,2.90039 l 0,0.16114 q 0,1.77246 -0.95215,2.90039 -0.95214,1.12793 -2.59277,1.12793 -1.64062,0 -2.6001,-1.12793 -0.95215,-1.13526 -0.95215,-2.90039 l 0,-0.16114 z m 1.44288,0.16114 q 0,1.25976 0.52734,2.08007 0.53467,0.82032 1.58203,0.82032 1.03272,0 1.56738,-0.82032 0.53467,-0.82031 0.53467,-2.08007 l 0,-0.16114 q 0,-1.24511 -0.54199,-2.07275 -0.53467,-0.82764 -1.57471,-0.82764 -1.03271,0 -1.56738,0.82764 -0.52734,0.82764 -0.52734,2.07275 l 0,0.16114 z"
         style="font-style:normal;font-variant:normal;font-weight:normal;font-stretch:normal;font-size:15px;line-height:100%;font-family:Roboto;-inkscape-font-specification:'Roboto, Normal';text-align:start;writing-mode:lr-tb;text-anchor:start;fill:#ffffff;fill-opacity:1"
         id="path7445" />
      <path
         d="m 241.74225,142.58214 q 0,1.71387 -0.82031,2.76855 -0.82032,1.04737 -2.26319,1.04737 -0.73242,0 -1.28906,-0.2417 -0.54932,-0.24903 -0.9375,-0.73975 l 0,3.87451 -1.44287,0 0,-10.97168 1.10596,0 0.22705,1.02539 q 0.38818,-0.57129 0.96679,-0.87158 0.57862,-0.30029 1.34766,-0.30029 1.47217,0 2.28516,1.17187 0.82031,1.16455 0.82031,3.0835 l 0,0.15381 z m -1.44287,-0.15381 q 0,-1.34766 -0.53467,-2.21191 -0.52734,-0.87159 -1.56006,-0.87159 -0.62256,0 -1.06201,0.28565 -0.43945,0.27832 -0.71045,0.76904 l 0,3.83057 q 0.271,0.49072 0.71045,0.76904 0.43945,0.271 1.07666,0.271 1.02539,0 1.55273,-0.74707 0.52735,-0.7544 0.52735,-1.94092 l 0,-0.15381 z"
         style="font-style:normal;font-variant:normal;font-weight:normal;font-stretch:normal;font-size:15px;line-height:100%;font-family:Roboto;-inkscape-font-specification:'Roboto, Normal';text-align:start;writing-mode:lr-tb;text-anchor:start;fill:#ffffff;fill-opacity:1"
         id="path7447" />
      <path
         d="m 246.80328,146.39806 q -1.65527,0 -2.63672,-1.09864 -0.97412,-1.10595 -0.97412,-2.86377 l 0,-0.32226 q 0,-1.6919 1.00342,-2.8125 1.01074,-1.12793 2.3877,-1.12793 1.604,0 2.42431,0.9668 0.82032,0.96679 0.82032,2.57812 l 0,0.90088 -5.14161,0 -0.022,0.0366 q 0.022,1.14258 0.57862,1.88232 0.55664,0.73243 1.56005,0.73243 0.73243,0 1.28174,-0.20508 0.55664,-0.2124 0.95947,-0.57862 l 0.56397,0.9375 q -0.42481,0.41749 -1.12061,0.69581 -0.6958,0.27832 -1.68457,0.27832 z m -0.21972,-7.08985 q -0.7251,0 -1.2378,0.61524 -0.51269,0.60791 -0.62988,1.53076 l 0.0146,0.0366 3.65478,0 0,-0.19043 q 0,-0.84961 -0.4541,-1.4209 -0.4541,-0.57129 -1.34765,-0.57129 z"
         style="font-style:normal;font-variant:normal;font-weight:normal;font-stretch:normal;font-size:15px;line-height:100%;font-family:Roboto;-inkscape-font-specification:'Roboto, Normal';text-align:start;writing-mode:lr-tb;text-anchor:start;fill:#ffffff;fill-opacity:1"
         id="path7449" />
      <path
         d="m 255.77545,146.24425 0,-6.85547 -1.23779,0 0,-1.06934 1.23779,0 0,-1.00342 q 0,-1.26709 0.65918,-1.95556 0.66651,-0.6958 1.85303,-0.6958 0.24902,0 0.49805,0.0439 0.25634,0.0366 0.56396,0.10987 l -0.17578,1.09863 q -0.13184,-0.0293 -0.32227,-0.0513 -0.1831,-0.022 -0.38818,-0.022 -0.62988,0 -0.9375,0.38086 -0.30762,0.37353 -0.30762,1.0913 l 0,1.00342 1.64795,0 0,1.06934 -1.64795,0 0,6.85547 -1.44287,0 z"
         style="font-style:normal;font-variant:normal;font-weight:normal;font-stretch:normal;font-size:15px;line-height:100%;font-family:Roboto;-inkscape-font-specification:'Roboto, Normal';text-align:start;writing-mode:lr-tb;text-anchor:start;fill:#ffffff;fill-opacity:1"
         id="path7451" />
      <path
         d="m 265.23102,146.24425 q -0.0732,-0.35889 -0.11719,-0.62989 -0.0366,-0.27832 -0.0439,-0.55664 -0.40284,0.57129 -1.05469,0.95948 -0.64453,0.38086 -1.3916,0.38086 -1.2378,0 -1.88965,-0.62989 -0.64453,-0.6372 -0.64453,-1.75049 0,-1.13525 0.91552,-1.77246 0.92286,-0.64453 2.49756,-0.64453 l 1.56739,0 0,-0.78369 q 0,-0.6958 -0.42481,-1.09863 -0.4248,-0.41016 -1.20117,-0.41016 -0.6958,0 -1.13526,0.35889 -0.43212,0.35156 -0.43212,0.84961 l -1.37696,0 -0.0147,-0.0439 q -0.0439,-0.86425 0.81299,-1.58203 0.86426,-0.71777 2.22657,-0.71777 1.34765,0 2.16796,0.68847 0.82032,0.68116 0.82032,1.97022 l 0,3.81592 q 0,0.4248 0.0439,0.82031 0.0439,0.39551 0.16113,0.77637 l -1.48681,0 z m -2.39502,-1.05469 q 0.78369,0 1.41357,-0.40283 0.62989,-0.40283 0.82032,-0.92285 l 0,-1.28907 -1.61866,0 q -0.87158,0 -1.39892,0.43946 -0.52002,0.43945 -0.52002,1.03271 0,0.52735 0.32959,0.83496 0.32959,0.30762 0.97412,0.30762 z"
         style="font-style:normal;font-variant:normal;font-weight:normal;font-stretch:normal;font-size:15px;line-height:100%;font-family:Roboto;-inkscape-font-specification:'Roboto, Normal';text-align:start;writing-mode:lr-tb;text-anchor:start;fill:#ffffff;fill-opacity:1"
         id="path7453" />
      <path
         d="m 270.18219,146.24425 -1.44287,0 0,-11.42578 1.44287,0 0,11.42578 z"
         style="font-style:normal;font-variant:normal;font-weight:normal;font-stretch:normal;font-size:15px;line-height:100%;font-family:Roboto;-inkscape-font-specification:'Roboto, Normal';text-align:start;writing-mode:lr-tb;text-anchor:start;fill:#ffffff;fill-opacity:1"
         id="path7455" />
      <path
         d="m 273.96149,146.24425 -1.44287,0 0,-11.42578 1.44287,0 0,11.42578 z"
         style="font-style:normal;font-variant:normal;font-weight:normal;font-stretch:normal;font-size:15px;line-height:100%;font-family:Roboto;-inkscape-font-specification:'Roboto, Normal';text-align:start;writing-mode:lr-tb;text-anchor:start;fill:#ffffff;fill-opacity:1"
         id="path7457" />
    </g>
    <g
       transform="matrix(0,-0.17203774,0.17203774,0,102.65029,237.62867)"
       id="g5885"
       style="font-style:normal;font-variant:normal;font-weight:300;font-stretch:normal;font-size:180px;line-height:100%;font-family:Roboto;-inkscape-font-specification:'Roboto, Light';text-align:start;letter-spacing:0px;word-spacing:0px;writing-mode:lr-tb;text-anchor:start;fill:#ffffff;fill-opacity:0.70196078;stroke:none;stroke-width:1px;stroke-linecap:butt;stroke-linejoin:miter;stroke-opacity:1">
      <path
         inkscape:connector-curvature="0"
         id="path5887"
         style="font-style:normal;font-variant:normal;font-weight:300;font-stretch:normal;font-size:180px;line-height:100%;font-family:Roboto;-inkscape-font-specification:'Roboto, Light';text-align:start;writing-mode:lr-tb;text-anchor:start;fill:#ffffff;fill-opacity:0.70196078"
         d="m 190.04073,880.37027 c -10.72266,-3.22265 -18.36915,-8.32031 -22.93946,-15.29297 -4.51172,-6.91406 -6.76758,-15.35156 -6.76758,-25.3125 l 0,-298.87182 c 0,-7.14844 -1.66992,-12.71485 -5.00976,-16.69922 -3.28125,-4.04297 -8.37891,-6.06445 -15.29297,-6.06445 l 0,-9.14063 c 6.91406,0 12.01172,-1.96289 15.29297,-5.88867 3.33984,-3.92578 5.00976,-9.49219 5.00976,-16.69922 l 0,-299.0476 c 0,-10.01954 2.25586,-18.51563 6.76758,-25.48828 4.57031,-7.03126 12.2168,-12.15821 22.93946,-15.38087 l 2.28515,6.94336 c -7.44141,2.40235 -12.89062,6.56251 -16.34765,12.48048 -3.39844,5.91796 -5.09766,13.0664 -5.09766,21.44531 l 0,299.0476 c 0,6.44531 -1.34766,12.04102 -4.04297,16.78711 -2.63672,4.74609 -6.67969,8.20313 -12.12891,10.3711 5.44922,2.28515 9.49219,5.83007 12.12891,10.63476 2.69531,4.74609 4.04297,10.3125 4.04297,16.69922 l 0,298.87182 c 0,8.37891 1.72852,15.43945 5.18555,21.18164 3.51562,5.80078 9.02343,9.93164 16.52343,12.39258 z"
         sodipodi:nodetypes="ccssccccssccccsscccssccc" />
    </g>
    <g
       style="font-style:normal;font-variant:normal;font-weight:normal;font-stretch:normal;font-size:15px;line-height:100%;font-family:Roboto;-inkscape-font-specification:'Roboto, Normal';text-align:start;letter-spacing:0px;word-spacing:0px;writing-mode:lr-tb;text-anchor:start;fill:#ffffff;fill-opacity:1;stroke:none;stroke-width:1px;stroke-linecap:butt;stroke-linejoin:miter;stroke-opacity:1"
       id="text5889">
      <path
         d="m 143.54018,228.01886 -1.4502,0 0,-10.66406 1.4502,0 0,10.66406 z"
         style="font-style:normal;font-variant:normal;font-weight:normal;font-stretch:normal;font-size:15px;line-height:100%;font-family:Roboto;-inkscape-font-specification:'Roboto, Normal';text-align:start;writing-mode:lr-tb;text-anchor:start;fill:#ffffff;fill-opacity:1"
         id="path7414" />
      <path
         d="m 147.28285,220.09406 0.10254,1.04003 q 0.38818,-0.56396 0.98145,-0.87158 0.60058,-0.31494 1.3916,-0.31494 0.79101,0 1.35498,0.36621 0.57129,0.36621 0.85693,1.09863 0.37354,-0.67382 0.98877,-1.06933 0.61524,-0.39551 1.43555,-0.39551 1.20849,0 1.91162,0.83496 0.70312,0.82764 0.70312,2.49756 l 0,4.73877 -1.44287,0 0,-4.75342 q 0,-1.17187 -0.40283,-1.65527 -0.40283,-0.49072 -1.20117,-0.49072 -0.73975,0 -1.20117,0.51269 -0.4541,0.5127 -0.53467,1.29639 l 0,0.0586 0,5.03174 -1.4502,0 0,-4.75342 q 0,-1.11328 -0.41748,-1.62597 -0.41015,-0.52002 -1.18652,-0.52002 -0.65918,0 -1.08398,0.27099 -0.42481,0.271 -0.65186,0.76172 l 0,5.8667 -1.44287,0 0,-7.9248 1.28906,0 z"
         style="font-style:normal;font-variant:normal;font-weight:normal;font-stretch:normal;font-size:15px;line-height:100%;font-family:Roboto;-inkscape-font-specification:'Roboto, Normal';text-align:start;writing-mode:lr-tb;text-anchor:start;fill:#ffffff;fill-opacity:1"
         id="path7416" />
      <path
         d="m 165.87172,224.35675 q 0,1.71387 -0.82031,2.76856 -0.82032,1.04736 -2.26319,1.04736 -0.73242,0 -1.28906,-0.2417 -0.54932,-0.24902 -0.9375,-0.73975 l 0,3.87451 -1.44287,0 0,-10.97167 1.10596,0 0.22705,1.02539 q 0.38818,-0.57129 0.96679,-0.87159 0.57862,-0.30029 1.34766,-0.30029 1.47217,0 2.28516,1.17188 0.82031,1.16455 0.82031,3.08349 l 0,0.15381 z m -1.44287,-0.15381 q 0,-1.34765 -0.53467,-2.21191 -0.52734,-0.87158 -1.56006,-0.87158 -0.62256,0 -1.06201,0.28564 -0.43945,0.27832 -0.71045,0.76904 l 0,3.83057 q 0.271,0.49072 0.71045,0.76904 0.43945,0.271 1.07666,0.271 1.02539,0 1.55273,-0.74707 0.52735,-0.7544 0.52735,-1.94092 l 0,-0.15381 z"
         style="font-style:normal;font-variant:normal;font-weight:normal;font-stretch:normal;font-size:15px;line-height:100%;font-family:Roboto;-inkscape-font-specification:'Roboto, Normal';text-align:start;writing-mode:lr-tb;text-anchor:start;fill:#ffffff;fill-opacity:1"
         id="path7418" />
      <path
         d="m 172.67592,226.84698 q -0.37354,0.63721 -0.95947,0.98145 -0.58594,0.34424 -1.35498,0.34424 -1.29639,0 -2.02149,-0.82764 -0.7251,-0.82763 -0.7251,-2.57812 l 0,-4.67285 1.44287,0 0,4.6875 q 0,1.26709 0.37354,1.74316 0.37353,0.47607 1.16455,0.47607 0.76904,0 1.26709,-0.30761 0.50537,-0.31495 0.76172,-0.88623 l 0,-5.71289 1.44287,0 0,7.9248 -1.29639,0 -0.0952,-1.17188 z"
         style="font-style:normal;font-variant:normal;font-weight:normal;font-stretch:normal;font-size:15px;line-height:100%;font-family:Roboto;-inkscape-font-specification:'Roboto, Normal';text-align:start;writing-mode:lr-tb;text-anchor:start;fill:#ffffff;fill-opacity:1"
         id="path7420" />
      <path
         d="m 177.72963,228.01886 -1.44287,0 0,-11.42578 1.44287,0 0,11.42578 z"
         style="font-style:normal;font-variant:normal;font-weight:normal;font-stretch:normal;font-size:15px;line-height:100%;font-family:Roboto;-inkscape-font-specification:'Roboto, Normal';text-align:start;writing-mode:lr-tb;text-anchor:start;fill:#ffffff;fill-opacity:1"
         id="path7422" />
      <path
         d="m 184.5558,225.91681 q 0,-0.47608 -0.36621,-0.78369 -0.35889,-0.30762 -1.36963,-0.53467 -1.44287,-0.31494 -2.17529,-0.84961 -0.7251,-0.54199 -0.7251,-1.47217 0,-0.96679 0.82031,-1.64795 0.82032,-0.68115 2.13868,-0.68115 1.38427,0 2.19726,0.71045 0.82031,0.71045 0.78369,1.72852 l -0.0146,0.0439 -1.37695,0 q 0,-0.52002 -0.43945,-0.93017 -0.43213,-0.41749 -1.1499,-0.41749 -0.76905,0 -1.14258,0.33692 -0.37354,0.33691 -0.37354,0.81299 0,0.46875 0.32959,0.73974 0.32959,0.271 1.34033,0.4834 1.50147,0.32227 2.23389,0.87891 0.73242,0.54931 0.73242,1.47949 0,1.05469 -0.85693,1.70654 -0.84961,0.65186 -2.22656,0.65186 -1.51612,0 -2.3877,-0.76904 -0.87158,-0.76905 -0.82764,-1.79444 l 0.0147,-0.0439 1.37696,0 q 0.0366,0.76904 0.57128,1.12793 0.53467,0.35156 1.25245,0.35156 0.76904,0 1.20117,-0.30762 0.43945,-0.31494 0.43945,-0.82031 z"
         style="font-style:normal;font-variant:normal;font-weight:normal;font-stretch:normal;font-size:15px;line-height:100%;font-family:Roboto;-inkscape-font-specification:'Roboto, Normal';text-align:start;writing-mode:lr-tb;text-anchor:start;fill:#ffffff;fill-opacity:1"
         id="path7424" />
      <path
         d="m 191.089,228.17267 q -1.65527,0 -2.63671,-1.09863 -0.97413,-1.10596 -0.97413,-2.86377 l 0,-0.32227 q 0,-1.69189 1.00342,-2.8125 1.01074,-1.12793 2.3877,-1.12793 1.604,0 2.42431,0.9668 0.82032,0.96679 0.82032,2.57812 l 0,0.90088 -5.1416,0 -0.022,0.0366 q 0.022,1.14258 0.57862,1.88233 0.55664,0.73242 1.56005,0.73242 0.73243,0 1.28174,-0.20508 0.55664,-0.2124 0.95948,-0.57861 l 0.56396,0.9375 q -0.4248,0.41748 -1.12061,0.6958 -0.6958,0.27832 -1.68457,0.27832 z m -0.21972,-7.08985 q -0.7251,0 -1.2378,0.61524 -0.51269,0.60791 -0.62988,1.53076 l 0.0147,0.0366 3.65479,0 0,-0.19043 q 0,-0.84961 -0.45411,-1.4209 -0.4541,-0.57129 -1.34765,-0.57129 z"
         style="font-style:normal;font-variant:normal;font-weight:normal;font-stretch:normal;font-size:15px;line-height:100%;font-family:Roboto;-inkscape-font-specification:'Roboto, Normal';text-align:start;writing-mode:lr-tb;text-anchor:start;fill:#ffffff;fill-opacity:1"
         id="path7426" />
      <path
         d="m 201.02065,228.01886 -1.44288,0 0,-11.42578 1.44288,0 0,11.42578 z"
         style="font-style:normal;font-variant:normal;font-weight:normal;font-stretch:normal;font-size:15px;line-height:100%;font-family:Roboto;-inkscape-font-specification:'Roboto, Normal';text-align:start;writing-mode:lr-tb;text-anchor:start;fill:#ffffff;fill-opacity:1"
         id="path7428" />
      <path
         d="m 206.52846,228.17267 q -1.65528,0 -2.63672,-1.09863 -0.97412,-1.10596 -0.97412,-2.86377 l 0,-0.32227 q 0,-1.69189 1.00342,-2.8125 1.01074,-1.12793 2.38769,-1.12793 1.604,0 2.42432,0.9668 0.82031,0.96679 0.82031,2.57812 l 0,0.90088 -5.1416,0 -0.022,0.0366 q 0.022,1.14258 0.57861,1.88233 0.55664,0.73242 1.56006,0.73242 0.73242,0 1.28174,-0.20508 0.55664,-0.2124 0.95947,-0.57861 l 0.56396,0.9375 q -0.4248,0.41748 -1.1206,0.6958 -0.6958,0.27832 -1.68457,0.27832 z m -0.21973,-7.08985 q -0.7251,0 -1.23779,0.61524 -0.5127,0.60791 -0.62988,1.53076 l 0.0146,0.0366 3.65479,0 0,-0.19043 q 0,-0.84961 -0.4541,-1.4209 -0.4541,-0.57129 -1.34766,-0.57129 z"
         style="font-style:normal;font-variant:normal;font-weight:normal;font-stretch:normal;font-size:15px;line-height:100%;font-family:Roboto;-inkscape-font-specification:'Roboto, Normal';text-align:start;writing-mode:lr-tb;text-anchor:start;fill:#ffffff;fill-opacity:1"
         id="path7430" />
      <path
         d="m 212.4684,220.09406 0.10254,1.17919 q 0.39551,-0.62988 0.98877,-0.97412 0.60058,-0.35156 1.3623,-0.35156 1.28174,0 1.98487,0.7544 0.70312,0.74707 0.70312,2.31445 l 0,5.00244 -1.44287,0 0,-4.97314 q 0,-1.04737 -0.41748,-1.48682 -0.41016,-0.43945 -1.25977,-0.43945 -0.62256,0 -1.10595,0.30029 -0.47608,0.30029 -0.76172,0.82031 l 0,5.77881 -1.44287,0 0,-7.9248 1.28906,0 z"
         style="font-style:normal;font-variant:normal;font-weight:normal;font-stretch:normal;font-size:15px;line-height:100%;font-family:Roboto;-inkscape-font-specification:'Roboto, Normal';text-align:start;writing-mode:lr-tb;text-anchor:start;fill:#ffffff;fill-opacity:1"
         id="path7432" />
      <path
         d="m 219.38979,224.20294 q 0,-1.91162 0.83496,-3.08349 0.83496,-1.17188 2.30713,-1.17188 0.75439,0 1.32568,0.30762 0.57129,0.30029 0.95215,0.87158 l 0.17578,-1.03271 1.1499,0 0,7.96875 q 0,1.52343 -0.88623,2.33642 -0.88623,0.82031 -2.55615,0.82031 -0.57129,0 -1.23779,-0.16113 -0.65918,-0.15381 -1.16456,-0.4248 l 0.36622,-1.12061 q 0.38818,0.21973 0.9375,0.35156 0.54931,0.13916 1.08398,0.13916 1.05469,0 1.53076,-0.4834 0.4834,-0.47607 0.4834,-1.45751 l 0,-0.89356 q -0.38818,0.49805 -0.93018,0.7544 -0.54199,0.24902 -1.24511,0.24902 -1.45752,0 -2.29248,-1.05469 -0.83496,-1.05469 -0.83496,-2.76123 l 0,-0.15381 z m 1.44287,0.15381 q 0,1.19385 0.50537,1.91895 0.50537,0.72509 1.53808,0.72509 0.65186,0 1.09131,-0.29297 0.43946,-0.30029 0.7251,-0.84228 l 0,-3.64746 q -0.27832,-0.50537 -0.7251,-0.79834 -0.44677,-0.30029 -1.07666,-0.30029 -1.03271,0 -1.54541,0.86425 -0.51269,0.86426 -0.51269,2.21924 l 0,0.15381 z"
         style="font-style:normal;font-variant:normal;font-weight:normal;font-stretch:normal;font-size:15px;line-height:100%;font-family:Roboto;-inkscape-font-specification:'Roboto, Normal';text-align:start;writing-mode:lr-tb;text-anchor:start;fill:#ffffff;fill-opacity:1"
         id="path7434" />
      <path
         d="m 230.13441,218.18243 0,1.91163 1.50147,0 0,1.06933 -1.50147,0 0,4.81201 q 0,0.55664 0.22706,0.78369 0.23437,0.22706 0.61523,0.22706 0.12451,0 0.271,-0.0293 0.1538,-0.0293 0.27099,-0.0732 l 0.19043,0.98877 q -0.16113,0.13183 -0.47607,0.2124 -0.30762,0.0879 -0.62256,0.0879 -0.87891,0 -1.39893,-0.52735 -0.52002,-0.53466 -0.52002,-1.66992 l 0,-4.81201 -1.25976,0 0,-1.06933 1.25976,0 0,-1.91163 1.44287,0 z"
         style="font-style:normal;font-variant:normal;font-weight:normal;font-stretch:normal;font-size:15px;line-height:100%;font-family:Roboto;-inkscape-font-specification:'Roboto, Normal';text-align:start;writing-mode:lr-tb;text-anchor:start;fill:#ffffff;fill-opacity:1"
         id="path7436" />
      <path
         d="m 234.85854,221.15607 q 0.41015,-0.57129 1.00341,-0.88623 0.60059,-0.32227 1.32569,-0.32227 1.26709,0 1.97021,0.76172 0.71045,0.76172 0.71045,2.34375 l 0,4.96582 -1.44287,0 0,-4.98047 q 0,-0.98144 -0.4248,-1.45019 -0.41748,-0.46875 -1.25245,-0.46875 -0.60058,0 -1.0913,0.28564 -0.4834,0.27832 -0.79834,0.76172 l 0,5.85205 -1.44288,0 0,-11.42578 1.44288,0 0,4.56299 z"
         style="font-style:normal;font-variant:normal;font-weight:normal;font-stretch:normal;font-size:15px;line-height:100%;font-family:Roboto;-inkscape-font-specification:'Roboto, Normal';text-align:start;writing-mode:lr-tb;text-anchor:start;fill:#ffffff;fill-opacity:1"
         id="path7438" />
    </g>
    <g
       style="font-style:normal;font-variant:normal;font-weight:normal;font-stretch:normal;font-size:15px;line-height:100%;font-family:Roboto;-inkscape-font-specification:'Roboto, Normal';text-align:start;letter-spacing:0px;word-spacing:0px;writing-mode:lr-tb;text-anchor:start;fill:#ffffff;fill-opacity:1;stroke:none;stroke-width:1px;stroke-linecap:butt;stroke-linejoin:miter;stroke-opacity:1"
       id="text5897">
      <path
         d="m 266.41388,228.01886 -1.4502,0 0,-10.66406 1.4502,0 0,10.66406 z"
         style="font-style:normal;font-variant:normal;font-weight:normal;font-stretch:normal;font-size:15px;line-height:100%;font-family:Roboto;-inkscape-font-specification:'Roboto, Normal';text-align:start;writing-mode:lr-tb;text-anchor:start;fill:#ffffff;fill-opacity:1"
         id="path7389" />
      <path
         d="m 270.15656,220.09406 0.10253,1.04003 q 0.38819,-0.56396 0.98145,-0.87158 0.60059,-0.31494 1.3916,-0.31494 0.79102,0 1.35498,0.36621 0.57129,0.36621 0.85694,1.09863 0.37353,-0.67382 0.98876,-1.06933 0.61524,-0.39551 1.43555,-0.39551 1.2085,0 1.91162,0.83496 0.70313,0.82764 0.70313,2.49756 l 0,4.73877 -1.44287,0 0,-4.75342 q 0,-1.17187 -0.40284,-1.65527 -0.40283,-0.49072 -1.20117,-0.49072 -0.73974,0 -1.20117,0.51269 -0.4541,0.5127 -0.53467,1.29639 l 0,0.0586 0,5.03174 -1.45019,0 0,-4.75342 q 0,-1.11328 -0.41748,-1.62597 -0.41016,-0.52002 -1.18653,-0.52002 -0.65918,0 -1.08398,0.27099 -0.42481,0.271 -0.65186,0.76172 l 0,5.8667 -1.44287,0 0,-7.9248 1.28907,0 z"
         style="font-style:normal;font-variant:normal;font-weight:normal;font-stretch:normal;font-size:15px;line-height:100%;font-family:Roboto;-inkscape-font-specification:'Roboto, Normal';text-align:start;writing-mode:lr-tb;text-anchor:start;fill:#ffffff;fill-opacity:1"
         id="path7391" />
      <path
         d="m 288.74542,224.35675 q 0,1.71387 -0.82031,2.76856 -0.82031,1.04736 -2.26318,1.04736 -0.73243,0 -1.28907,-0.2417 -0.54931,-0.24902 -0.9375,-0.73975 l 0,3.87451 -1.44287,0 0,-10.97167 1.10596,0 0.22705,1.02539 q 0.38818,-0.57129 0.9668,-0.87159 0.57861,-0.30029 1.34765,-0.30029 1.47217,0 2.28516,1.17188 0.82031,1.16455 0.82031,3.08349 l 0,0.15381 z m -1.44287,-0.15381 q 0,-1.34765 -0.53467,-2.21191 -0.52734,-0.87158 -1.56006,-0.87158 -0.62255,0 -1.06201,0.28564 -0.43945,0.27832 -0.71045,0.76904 l 0,3.83057 q 0.271,0.49072 0.71045,0.76904 0.43946,0.271 1.07666,0.271 1.02539,0 1.55274,-0.74707 0.52734,-0.7544 0.52734,-1.94092 l 0,-0.15381 z"
         style="font-style:normal;font-variant:normal;font-weight:normal;font-stretch:normal;font-size:15px;line-height:100%;font-family:Roboto;-inkscape-font-specification:'Roboto, Normal';text-align:start;writing-mode:lr-tb;text-anchor:start;fill:#ffffff;fill-opacity:1"
         id="path7393" />
      <path
         d="m 295.54962,226.84698 q -0.37353,0.63721 -0.95947,0.98145 -0.58594,0.34424 -1.35498,0.34424 -1.29639,0 -2.02149,-0.82764 -0.72509,-0.82763 -0.72509,-2.57812 l 0,-4.67285 1.44287,0 0,4.6875 q 0,1.26709 0.37353,1.74316 0.37354,0.47607 1.16455,0.47607 0.76905,0 1.26709,-0.30761 0.50537,-0.31495 0.76172,-0.88623 l 0,-5.71289 1.44287,0 0,7.9248 -1.29638,0 -0.0952,-1.17188 z"
         style="font-style:normal;font-variant:normal;font-weight:normal;font-stretch:normal;font-size:15px;line-height:100%;font-family:Roboto;-inkscape-font-specification:'Roboto, Normal';text-align:start;writing-mode:lr-tb;text-anchor:start;fill:#ffffff;fill-opacity:1"
         id="path7395" />
      <path
         d="m 300.60333,228.01886 -1.44287,0 0,-11.42578 1.44287,0 0,11.42578 z"
         style="font-style:normal;font-variant:normal;font-weight:normal;font-stretch:normal;font-size:15px;line-height:100%;font-family:Roboto;-inkscape-font-specification:'Roboto, Normal';text-align:start;writing-mode:lr-tb;text-anchor:start;fill:#ffffff;fill-opacity:1"
         id="path7397" />
      <path
         d="m 307.4295,225.91681 q 0,-0.47608 -0.36621,-0.78369 -0.35888,-0.30762 -1.36963,-0.53467 -1.44287,-0.31494 -2.17529,-0.84961 -0.7251,-0.54199 -0.7251,-1.47217 0,-0.96679 0.82032,-1.64795 0.82031,-0.68115 2.13867,-0.68115 1.38428,0 2.19726,0.71045 0.82032,0.71045 0.7837,1.72852 l -0.0147,0.0439 -1.37696,0 q 0,-0.52002 -0.43945,-0.93017 -0.43213,-0.41749 -1.1499,-0.41749 -0.76904,0 -1.14258,0.33692 -0.37353,0.33691 -0.37353,0.81299 0,0.46875 0.32958,0.73974 0.32959,0.271 1.34034,0.4834 1.50146,0.32227 2.23388,0.87891 0.73243,0.54931 0.73243,1.47949 0,1.05469 -0.85694,1.70654 -0.84961,0.65186 -2.22656,0.65186 -1.51611,0 -2.3877,-0.76904 -0.87158,-0.76905 -0.82763,-1.79444 l 0.0146,-0.0439 1.37695,0 q 0.0366,0.76904 0.57129,1.12793 0.53467,0.35156 1.25244,0.35156 0.76904,0 1.20117,-0.30762 0.43945,-0.31494 0.43945,-0.82031 z"
         style="font-style:normal;font-variant:normal;font-weight:normal;font-stretch:normal;font-size:15px;line-height:100%;font-family:Roboto;-inkscape-font-specification:'Roboto, Normal';text-align:start;writing-mode:lr-tb;text-anchor:start;fill:#ffffff;fill-opacity:1"
         id="path7399" />
      <path
         d="m 313.96271,228.17267 q -1.65528,0 -2.63672,-1.09863 -0.97412,-1.10596 -0.97412,-2.86377 l 0,-0.32227 q 0,-1.69189 1.00342,-2.8125 1.01074,-1.12793 2.38769,-1.12793 1.604,0 2.42432,0.9668 0.82031,0.96679 0.82031,2.57812 l 0,0.90088 -5.1416,0 -0.022,0.0366 q 0.022,1.14258 0.57861,1.88233 0.55664,0.73242 1.56006,0.73242 0.73242,0 1.28174,-0.20508 0.55664,-0.2124 0.95947,-0.57861 l 0.56396,0.9375 q -0.4248,0.41748 -1.1206,0.6958 -0.6958,0.27832 -1.68457,0.27832 z m -0.21973,-7.08985 q -0.7251,0 -1.23779,0.61524 -0.5127,0.60791 -0.62988,1.53076 l 0.0146,0.0366 3.65479,0 0,-0.19043 q 0,-0.84961 -0.4541,-1.4209 -0.4541,-0.57129 -1.34766,-0.57129 z"
         style="font-style:normal;font-variant:normal;font-weight:normal;font-stretch:normal;font-size:15px;line-height:100%;font-family:Roboto;-inkscape-font-specification:'Roboto, Normal';text-align:start;writing-mode:lr-tb;text-anchor:start;fill:#ffffff;fill-opacity:1"
         id="path7401" />
      <path
         d="m 322.0047,224.20294 q 0,-1.91162 0.81299,-3.08349 0.82031,-1.17188 2.29248,-1.17188 0.6958,0 1.23047,0.25635 0.54199,0.25635 0.92285,0.74707 l 0,-4.35791 1.44287,0 0,11.42578 -1.1792,0 -0.16846,-0.97412 q -0.38818,0.55664 -0.95214,0.84228 -0.56397,0.28565 -1.31104,0.28565 -1.4502,0 -2.27051,-1.04736 -0.82031,-1.05469 -0.82031,-2.76856 l 0,-0.15381 z m 1.44287,0.15381 q 0,1.20117 0.49072,1.92627 0.49073,0.71777 1.52344,0.71777 0.64453,0 1.08399,-0.29297 0.43945,-0.29296 0.71777,-0.82031 l 0,-3.69873 q -0.27832,-0.49072 -0.7251,-0.77637 -0.43945,-0.29296 -1.06201,-0.29296 -1.04004,0 -1.53809,0.85693 -0.49072,0.85693 -0.49072,2.22656 l 0,0.15381 z"
         style="font-style:normal;font-variant:normal;font-weight:normal;font-stretch:normal;font-size:15px;line-height:100%;font-family:Roboto;-inkscape-font-specification:'Roboto, Normal';text-align:start;writing-mode:lr-tb;text-anchor:start;fill:#ffffff;fill-opacity:1"
         id="path7403" />
      <path
         d="m 334.14825,228.17267 q -1.65527,0 -2.63671,-1.09863 -0.97413,-1.10596 -0.97413,-2.86377 l 0,-0.32227 q 0,-1.69189 1.00342,-2.8125 1.01074,-1.12793 2.3877,-1.12793 1.604,0 2.42431,0.9668 0.82032,0.96679 0.82032,2.57812 l 0,0.90088 -5.1416,0 -0.022,0.0366 q 0.022,1.14258 0.57862,1.88233 0.55664,0.73242 1.56005,0.73242 0.73243,0 1.28174,-0.20508 0.55664,-0.2124 0.95948,-0.57861 l 0.56396,0.9375 q -0.4248,0.41748 -1.12061,0.6958 -0.6958,0.27832 -1.68457,0.27832 z m -0.21972,-7.08985 q -0.7251,0 -1.2378,0.61524 -0.51269,0.60791 -0.62988,1.53076 l 0.0146,0.0366 3.65479,0 0,-0.19043 q 0,-0.84961 -0.45411,-1.4209 -0.4541,-0.57129 -1.34765,-0.57129 z"
         style="font-style:normal;font-variant:normal;font-weight:normal;font-stretch:normal;font-size:15px;line-height:100%;font-family:Roboto;-inkscape-font-specification:'Roboto, Normal';text-align:start;writing-mode:lr-tb;text-anchor:start;fill:#ffffff;fill-opacity:1"
         id="path7405" />
      <path
         d="m 340.35919,228.01886 -1.44287,0 0,-11.42578 1.44287,0 0,11.42578 z"
         style="font-style:normal;font-variant:normal;font-weight:normal;font-stretch:normal;font-size:15px;line-height:100%;font-family:Roboto;-inkscape-font-specification:'Roboto, Normal';text-align:start;writing-mode:lr-tb;text-anchor:start;fill:#ffffff;fill-opacity:1"
         id="path7407" />
      <path
         d="m 347.44904,228.01886 q -0.0733,-0.35889 -0.11719,-0.62988 -0.0366,-0.27832 -0.0439,-0.55664 -0.40283,0.57129 -1.05468,0.95947 -0.64454,0.38086 -1.39161,0.38086 -1.23779,0 -1.88964,-0.62988 -0.64454,-0.63721 -0.64454,-1.75049 0,-1.13526 0.91553,-1.77246 0.92285,-0.64453 2.49756,-0.64453 l 1.56738,0 0,-0.7837 q 0,-0.6958 -0.4248,-1.09863 -0.42481,-0.41016 -1.20117,-0.41016 -0.6958,0 -1.13526,0.35889 -0.43213,0.35156 -0.43213,0.84961 l -1.37695,0 -0.0146,-0.0439 q -0.0439,-0.86426 0.81299,-1.58204 0.86426,-0.71777 2.22656,-0.71777 1.34766,0 2.16797,0.68848 0.82031,0.68115 0.82031,1.97021 l 0,3.81592 q 0,0.4248 0.0439,0.82031 0.0439,0.39551 0.16113,0.77637 l -1.48681,0 z m -2.39502,-1.05469 q 0.78369,0 1.41357,-0.40283 0.62988,-0.40283 0.82031,-0.92285 l 0,-1.28906 -1.61865,0 q -0.87158,0 -1.39893,0.43945 -0.52001,0.43945 -0.52001,1.03271 0,0.52735 0.32959,0.83497 0.32958,0.30761 0.97412,0.30761 z"
         style="font-style:normal;font-variant:normal;font-weight:normal;font-stretch:normal;font-size:15px;line-height:100%;font-family:Roboto;-inkscape-font-specification:'Roboto, Normal';text-align:start;writing-mode:lr-tb;text-anchor:start;fill:#ffffff;fill-opacity:1"
         id="path7409" />
      <path
         d="m 353.14728,225.08185 0.25635,0.99609 0.0439,0 1.94824,-5.98388 1.60401,0 -3.33252,9.14062 q -0.3003,0.79834 -0.86426,1.3916 -0.55664,0.59326 -1.50879,0.59326 -0.17578,0 -0.44678,-0.0439 -0.27099,-0.0366 -0.41748,-0.0732 l 0.14649,-1.13526 q -0.0439,-0.007 0.25634,0.0147 0.30762,0.022 0.38819,0.022 0.46142,0 0.75439,-0.41015 0.29297,-0.41016 0.49073,-0.90821 l 0.34423,-0.82763 -2.94433,-7.76367 1.61133,0 1.66992,4.98779 z"
         style="font-style:normal;font-variant:normal;font-weight:normal;font-stretch:normal;font-size:15px;line-height:100%;font-family:Roboto;-inkscape-font-specification:'Roboto, Normal';text-align:start;writing-mode:lr-tb;text-anchor:start;fill:#ffffff;fill-opacity:1"
         id="path7411" />
    </g>
    <g
       style="font-style:normal;font-variant:normal;font-weight:300;font-stretch:normal;font-size:180px;line-height:100%;font-family:Roboto;-inkscape-font-specification:'Roboto, Light';text-align:start;letter-spacing:0px;word-spacing:0px;writing-mode:lr-tb;text-anchor:start;fill:#ffffff;fill-opacity:0.70196078;stroke:none;stroke-width:1px;stroke-linecap:butt;stroke-linejoin:miter;stroke-opacity:1"
       id="g5901"
       transform="matrix(0,-0.17203774,0.17203774,0,222.6529,237.62867)">
      <path
         sodipodi:nodetypes="ccssccccssccccsscccssccc"
         d="m 190.04073,833.86885 c -10.72266,-3.22265 -18.36915,-8.32031 -22.93946,-15.29297 -4.51172,-6.91406 -6.76758,-15.35156 -6.76758,-25.3125 l 0,-252.3704 c 0,-7.14844 -1.66992,-12.71485 -5.00976,-16.69922 -3.28125,-4.04297 -8.37891,-6.06445 -15.29297,-6.06445 l 0,-9.14063 c 6.91406,0 12.01172,-1.96289 15.29297,-5.88867 3.33984,-3.92578 5.00976,-9.49219 5.00976,-16.69922 l 0,-252.54618 c 0,-10.01954 2.25586,-18.51563 6.76758,-25.48828 4.57031,-7.03126 12.2168,-12.15821 22.93946,-15.38087 l 2.28515,6.94336 c -7.44141,2.40235 -12.89062,6.56251 -16.34765,12.48048 -3.39844,5.91796 -5.09766,13.0664 -5.09766,21.44531 l 0,252.54618 c 0,6.44531 -1.34766,12.04102 -4.04297,16.78711 -2.63672,4.74609 -6.67969,8.20313 -12.12891,10.3711 5.44922,2.28515 9.49219,5.83007 12.12891,10.63476 2.69531,4.74609 4.04297,10.3125 4.04297,16.69922 l 0,252.3704 c 0,8.37891 1.72852,15.43945 5.18555,21.18164 3.51562,5.80078 9.02343,9.93164 16.52343,12.39258 z"
         style="font-style:normal;font-variant:normal;font-weight:300;font-stretch:normal;font-size:180px;line-height:100%;font-family:Roboto;-inkscape-font-specification:'Roboto, Light';text-align:start;writing-mode:lr-tb;text-anchor:start;fill:#ffffff;fill-opacity:0.70196078"
         id="path5903"
         inkscape:connector-curvature="0" />
    </g>
    <path
       style="color:#000000;font-style:normal;font-variant:normal;font-weight:normal;font-stretch:normal;font-size:medium;line-height:normal;font-family:sans-serif;text-indent:0;text-align:start;text-decoration:none;text-decoration-line:none;text-decoration-style:solid;text-decoration-color:#000000;letter-spacing:normal;word-spacing:normal;text-transform:none;direction:ltr;block-progression:tb;writing-mode:lr-tb;baseline-shift:baseline;text-anchor:start;white-space:normal;clip-rule:nonzero;display:inline;overflow:visible;visibility:visible;opacity:1;isolation:auto;mix-blend-mode:normal;color-interpolation:sRGB;color-interpolation-filters:linearRGB;solid-color:#000000;solid-opacity:1;fill:#ffffff;fill-opacity:0.70196078;fill-rule:evenodd;stroke:none;stroke-width:1.5;stroke-linecap:butt;stroke-linejoin:miter;stroke-miterlimit:4;stroke-dasharray:none;stroke-dashoffset:0;stroke-opacity:1;color-rendering:auto;image-rendering:auto;shape-rendering:auto;text-rendering:auto;enable-background:accumulate"
       d="m 115.91602,162.51562 0,1.5 11.10546,0 0,-1.5 -11.10546,0 z"
       id="path4657"
       inkscape:connector-curvature="0" />
    <path
       style="color:#000000;font-style:normal;font-variant:normal;font-weight:normal;font-stretch:normal;font-size:medium;line-height:normal;font-family:sans-serif;text-indent:0;text-align:start;text-decoration:none;text-decoration-line:none;text-decoration-style:solid;text-decoration-color:#000000;letter-spacing:normal;word-spacing:normal;text-transform:none;direction:ltr;block-progression:tb;writing-mode:lr-tb;baseline-shift:baseline;text-anchor:start;white-space:normal;clip-rule:nonzero;display:inline;overflow:visible;visibility:visible;opacity:1;isolation:auto;mix-blend-mode:normal;color-interpolation:sRGB;color-interpolation-filters:linearRGB;solid-color:#000000;solid-opacity:1;fill:#80cbc4;fill-opacity:1;fill-rule:evenodd;stroke:none;stroke-width:1.5;stroke-linecap:round;stroke-linejoin:round;stroke-miterlimit:4;stroke-dasharray:none;stroke-dashoffset:0;stroke-opacity:1;color-rendering:auto;image-rendering:auto;shape-rendering:auto;text-rendering:auto;enable-background:accumulate"
       d="m 396.18555,162.51562 a 0.750075,0.750075 0 0 0 -0.55664,0.24805 l -29.17188,32.26563 -8.87695,0 a 0.750075,0.750075 0 1 0 0,1.5 l 9.20898,0 a 0.750075,0.750075 0 0 0 0.55664,-0.2461 l 29.17188,-32.26758 6.17773,0 a 0.750075,0.750075 0 1 0 0,-1.5 l -6.50976,0 z"
       id="path7333"
       inkscape:connector-curvature="0" />
    <path
       style="color:#000000;font-style:normal;font-variant:normal;font-weight:normal;font-stretch:normal;font-size:medium;line-height:normal;font-family:sans-serif;text-indent:0;text-align:start;text-decoration:none;text-decoration-line:none;text-decoration-style:solid;text-decoration-color:#000000;letter-spacing:normal;word-spacing:normal;text-transform:none;direction:ltr;block-progression:tb;writing-mode:lr-tb;baseline-shift:baseline;text-anchor:start;white-space:normal;clip-rule:nonzero;display:inline;overflow:visible;visibility:visible;opacity:1;isolation:auto;mix-blend-mode:normal;color-interpolation:sRGB;color-interpolation-filters:linearRGB;solid-color:#000000;solid-opacity:1;fill:#f17a0a;fill-opacity:1;fill-rule:evenodd;stroke:none;stroke-width:1.5;stroke-linecap:butt;stroke-linejoin:miter;stroke-miterlimit:4;stroke-dasharray:none;stroke-dashoffset:0;stroke-opacity:1;color-rendering:auto;image-rendering:auto;shape-rendering:auto;text-rendering:auto;enable-background:accumulate"
       d="m 366.08398,190.19922 0,11.10742 1.5,0 0,-11.10742 -1.5,0 z"
       id="path5659"
       inkscape:connector-curvature="0" />
  </g>
</svg>
